<svg width="26" height="32" viewBox="0 0 26 32" fill="none" xmlns="http://www.w3.org/2000/svg">
<rect width="26" height="32" rx="4" fill="#FF6633"/>
<path d="M12.9548 21.16C12.1228 21.16 11.4028 21.0267 10.7948 20.76C10.1868 20.4827 9.72275 20.1253 9.40275 19.688C9.09342 19.2507 8.92808 18.7973 8.90675 18.328C8.90675 18.232 8.93875 18.1573 9.00275 18.104C9.06675 18.04 9.14675 18.008 9.24275 18.008H9.96275C10.0801 18.008 10.1761 18.0347 10.2508 18.088C10.3254 18.1307 10.3841 18.2213 10.4268 18.36C10.5654 18.904 10.8641 19.288 11.3228 19.512C11.7921 19.736 12.3414 19.848 12.9708 19.848C13.7388 19.848 14.3468 19.6667 14.7948 19.304C15.2534 18.9307 15.4828 18.4027 15.4828 17.72C15.4828 16.4187 14.6881 15.768 13.0988 15.768H11.5948C11.4881 15.768 11.3974 15.736 11.3228 15.672C11.2588 15.5973 11.2268 15.5067 11.2268 15.4V14.984C11.2268 14.824 11.2854 14.6853 11.4028 14.568L14.5228 11.112H9.78675C9.68008 11.112 9.58942 11.08 9.51475 11.016C9.45075 10.952 9.41875 10.8667 9.41875 10.76V10.184C9.41875 10.0667 9.45075 9.976 9.51475 9.912C9.58942 9.83733 9.68008 9.8 9.78675 9.8H16.1228C16.2401 9.8 16.3308 9.83733 16.3948 9.912C16.4694 9.976 16.5068 10.0667 16.5068 10.184V10.712C16.5068 10.8293 16.4534 10.952 16.3468 11.08L13.2268 14.584H13.4828C14.5708 14.616 15.4294 14.8987 16.0588 15.432C16.6988 15.9653 17.0188 16.744 17.0188 17.768C17.0188 18.472 16.8428 19.08 16.4908 19.592C16.1494 20.0933 15.6694 20.4827 15.0508 20.76C14.4321 21.0267 13.7334 21.16 12.9548 21.16Z" fill="white"/>
</svg>
