<svg width="18" height="17" viewBox="0 0 18 17" fill="none" xmlns="http://www.w3.org/2000/svg">
<path d="M7.56134 17C7.33829 17 7.13755 16.9257 6.95911 16.7772C6.80297 16.6074 6.72491 16.4164 6.72491 16.2041V10.4419H0.836431C0.613383 10.4419 0.412639 10.3677 0.234201 10.2191C0.0780669 10.0493 0 9.8583 0 9.64607V7.19476C0 6.9613 0.0780669 6.77029 0.234201 6.62172C0.390335 6.45193 0.591078 6.36704 0.836431 6.36704H6.72491V0.795879C6.72491 0.562422 6.80297 0.37141 6.95911 0.222847C7.13755 0.0742818 7.33829 0 7.56134 0H10.4387C10.684 0 10.8848 0.0742818 11.0409 0.222847C11.2193 0.37141 11.3086 0.562422 11.3086 0.795879V6.36704H17.1301C17.3755 6.36704 17.5762 6.45193 17.7323 6.62172C17.9108 6.77029 18 6.9613 18 7.19476V9.64607C18 9.87952 17.9108 10.0705 17.7323 10.2191C17.5762 10.3677 17.3755 10.4419 17.1301 10.4419H11.3086V16.2041C11.3086 16.4376 11.2193 16.6286 11.0409 16.7772C10.8848 16.9257 10.684 17 10.4387 17H7.56134Z" fill="#FF6633"/>
</svg>
